HIERARCHY
ROOT Hips
{
	OFFSET 0.000000 0.000000 0.000000 
	CHANNELS 6 Xposition Yposition Zposition Zrotation Yrotation Xrotation
	JOINT LeftUpLeg
	{
		OFFSET 1.363060 -1.794630 0.839290 
		CHANNELS 3 Zrotation Yrotation Xrotation
		JOINT LeftLeg
		{
			OFFSET 2.448110 -6.726130 0.000000 
			CHANNELS 3 Zrotation Yrotation Xrotation
			JOINT LeftFoot
			{
				OFFSET 2.562200 -7.039590 0.000000 
				CHANNELS 3 Zrotation Yrotation Xrotation
				JOINT LeftToeBase
				{
					OFFSET 0.157640 -0.433110 2.322550 
					CHANNELS 3 Zrotation Yrotation Xrotation
					End Site
					{
						OFFSET 0.000000 0.000000 0.000000 
					}
				}
			}
		}
	}
	JOINT RightUpLeg
	{
		OFFSET -1.305520 -1.794630 0.839290 
		CHANNELS 3 Zrotation Yrotation Xrotation
		JOINT RightLeg
		{
			OFFSET -2.542530 -6.985550 0.000000 
			CHANNELS 3 Zrotation Yrotation Xrotation
			JOINT RightFoot
			{
				OFFSET -2.568260 -7.056230 0.000000 
				CHANNELS 3 Zrotation Yrotation Xrotation
				JOINT RightToeBase
				{
					OFFSET -0.164730 -0.452590 2.363150 
					CHANNELS 3 Zrotation Yrotation Xrotation
					End Site
					{
						OFFSET 0.000000 0.000000 0.000000 
					}
				}
			}
		}
	}
	JOINT Spine
	{
		OFFSET 0.028270 2.035590 -0.193380 
		CHANNELS 3 Zrotation Yrotation Xrotation
		JOINT Spine1
		{
			OFFSET 0.056720 2.048850 -0.042750 
			CHANNELS 3 Zrotation Yrotation Xrotation
			JOINT Neck1
			{
				OFFSET -0.054170 1.746240 0.172020 
				CHANNELS 3 Zrotation Yrotation Xrotation
				JOINT Head
				{
					OFFSET 0.104070 1.761360 -0.123970 
					CHANNELS 3 Zrotation Yrotation Xrotation
					End Site
					{
						OFFSET 0.000000 0.000000 0.000000 
					}
				}
			}
			JOINT LeftArm
			{
				OFFSET 3.362410 1.200890 -0.311210 
				CHANNELS 3 Zrotation Yrotation Xrotation
				JOINT LeftForeArm
				{
					OFFSET 4.983000 -0.000000 -0.000000 
					CHANNELS 3 Zrotation Yrotation Xrotation
					JOINT LeftHand
					{
						OFFSET 3.483560 -0.000000 -0.000000 
						CHANNELS 3 Zrotation Yrotation Xrotation
						JOINT LeftHandIndex1
						{
							OFFSET 0.715260 -0.000000 -0.000000 
							CHANNELS 3 Zrotation Yrotation Xrotation
							End Site
							{
								OFFSET 0.000000 0.000000 0.000000 
							}
						}
					}
				}
			}
			JOINT RightArm
			{
				OFFSET -3.136600 1.374050 -0.404650 
				CHANNELS 3 Zrotation Yrotation Xrotation
				JOINT RightForeArm
				{
					OFFSET -5.241900 -0.000000 -0.000000 
					CHANNELS 3 Zrotation Yrotation Xrotation
					JOINT RightHand
					{
						OFFSET -3.444170 -0.000000 -0.000000 
						CHANNELS 3 Zrotation Yrotation Xrotation
						JOINT RightHandIndex1
						{
							OFFSET -0.622530 -0.000000 -0.000000 
							CHANNELS 3 Zrotation Yrotation Xrotation
							End Site
							{
								OFFSET 0.000000 0.000000 0.000000 
							}
						}
					}
				}
			}
		}
	}
}
MOTION
Frames: 13
Frame Time: 0.041667
7.869104 16.637404 1.593412 -152.963364 -66.245671 -164.022231 14.642205 -2.730264 -75.182116 3.969922 10.873482 32.196325 -2.557570 13.649017 19.499762 3.412800 -11.335100 -33.418500 21.307327 -5.685206 -60.704319 -11.195358 -17.901662 63.622547 -3.938451 16.088174 1.556664 -1.148000 6.803400 -19.134300 -3.268331 -3.161924 2.622215 -4.093571 -2.233052 1.554520 -0.679895 9.346148 -12.355775 -0.956900 4.166100 -4.441400 -16.950215 -35.197840 23.340698 4.810576 -12.447125 -1.058121 -0.442001 1.826208 -2.215311 -7.125000 0.000000 0.000000 -65.544713 50.771005 -75.283108 -25.578920 47.627633 -13.763427 -0.471706 2.374820 -39.688385 7.125000 0.000000 0.000000 
7.914097 16.534860 1.628904 -152.884748 -65.582019 -163.618967 14.201245 -1.918641 -77.858365 4.629237 11.576839 35.651274 -1.416494 10.698614 20.036903 3.290600 -11.151300 -32.791800 21.206741 -5.315583 -63.781795 -12.544816 -18.344068 67.846107 -3.766791 17.076324 3.223231 -0.901900 6.052100 -16.935800 -3.310245 -3.230120 2.653890 -4.089946 -2.279158 1.449493 -0.904549 9.558026 -12.508002 -1.049200 4.273900 -4.519900 -16.619518 -35.212010 21.974043 4.800398 -12.522557 -1.113374 -0.627456 1.912758 -2.636218 -7.125000 0.000000 0.000000 -65.904319 50.162110 -75.334580 -26.279826 48.162145 -14.217495 -0.472045 2.407631 -40.574994 7.125000 0.000000 0.000000 
7.954612 16.406981 1.669091 -152.609500 -64.941429 -163.538602 14.036461 -1.254860 -80.689077 5.523924 12.456995 39.896400 -0.450202 7.909980 19.940349 3.168600 -10.963100 -32.155700 21.077385 -4.985681 -66.790466 -13.967276 -18.715057 72.195360 -3.607835 17.699169 4.280159 -0.776500 5.626200 -15.703600 -3.347100 -3.294912 2.694355 -4.193481 -2.315796 1.341960 -1.193092 9.777318 -12.682712 -1.169700 4.387700 -4.608300 -16.436779 -35.165820 20.471867 4.820531 -12.619114 -1.170768 -0.781947 1.967877 -2.875573 -7.125000 0.000000 0.000000 -66.093390 49.651057 -75.203672 -27.234212 48.807196 -14.820589 -0.464938 2.436981 -41.378741 7.125000 0.000000 0.000000 
7.990431 16.253766 1.712118 -152.204546 -64.281441 -163.738501 14.079764 -0.654673 -83.587321 6.684924 13.453819 44.858865 0.341719 5.410148 19.416895 3.018000 -10.724100 -31.355000 20.923029 -4.706713 -69.686562 -15.437588 -18.997578 76.604506 -3.483719 18.019639 4.698522 -0.742900 5.505800 -15.357000 -3.385845 -3.354898 2.760584 -4.364168 -2.346969 1.272283 -1.526766 10.014235 -12.869864 -1.310500 4.510700 -4.695900 -16.322851 -35.058901 19.031164 4.849123 -12.708520 -1.219706 -0.930092 1.989124 -3.192037 -7.125000 0.000000 0.000000 -66.210345 49.234921 -75.052244 -28.418857 49.561742 -15.579128 -0.449871 2.453538 -42.030178 7.125000 0.000000 0.000000 
8.021882 16.077618 1.756019 -151.760955 -63.580299 -164.148225 14.273401 -0.066210 -86.459049 8.113316 14.487232 50.415781 0.975256 3.276030 18.708602 2.832000 -10.418000 -30.341400 20.734639 -4.497785 -72.433478 -16.920200 -19.178103 80.999012 -3.394503 18.113744 4.636939 -0.741900 5.502400 -15.347300 -3.421384 -3.413117 2.852798 -4.535971 -2.378366 1.246878 -1.891014 10.272434 -13.046166 -1.462400 4.645700 -4.769100 -16.246711 -34.889762 17.811959 4.870064 -12.770684 -1.253466 -1.088041 1.975518 -3.750637 -7.125000 0.000000 0.000000 -66.331939 48.927967 -74.972903 -29.826676 50.428254 -16.504537 -0.431829 2.449897 -42.482977 7.125000 0.000000 0.000000 
8.049948 15.881267 1.798827 -151.384972 -62.825754 -164.641164 14.542782 0.556215 -89.264087 9.779047 15.469912 56.417949 1.476100 1.518258 18.040951 2.668600 -10.138300 -29.425700 20.491051 -4.360386 -75.055814 -18.381909 -19.250389 85.318096 -3.329823 18.053666 4.324284 -0.717200 5.411700 -15.086700 -3.455587 -3.453541 2.950901 -4.677723 -2.402818 1.236930 -2.258357 10.535100 -13.181168 -1.615400 4.783600 -4.814800 -16.214622 -34.676620 17.024753 4.883100 -12.800246 -1.269945 -1.262609 1.926786 -4.677602 -7.125000 0.000000 0.000000 -66.397525 48.744391 -74.906559 -31.471434 51.390222 -17.610312 -0.413324 2.426310 -42.720634 7.125000 0.000000 0.000000 
8.073318 15.671921 1.839561 -151.153292 -62.010580 -165.194368 14.819799 1.219070 -91.861393 11.622655 16.328798 62.698626 1.877871 0.082141 17.551151 2.573900 -9.971100 -28.883300 20.180711 -4.330022 -77.484988 -19.783363 -19.217335 89.479009 -3.280523 17.945810 3.987661 -0.628700 5.073600 -14.118600 -3.483623 -3.469481 3.048976 -4.750617 -2.418723 1.203895 -2.598685 10.803941 -13.267930 -1.752400 4.927500 -4.838600 -16.253416 -34.413713 16.762873 4.899199 -12.808614 -1.275414 -1.453707 1.849710 -6.014287 -7.125000 0.000000 0.000000 -66.369903 48.683442 -74.765581 -33.390598 52.445677 -18.921291 -0.393991 2.385670 -42.782699 7.125000 0.000000 0.000000 
8.093193 15.450671 1.877782 -151.131472 -61.161232 -165.668091 15.050104 1.921289 -94.285309 13.573878 17.009965 69.105800 2.223446 -1.146427 17.308976 2.619500 -10.052000 -29.145400 19.787340 -4.401414 -79.831952 -21.101311 -19.084829 93.441639 -3.237181 17.898305 3.836490 -0.471200 4.402500 -12.211800 -3.491246 -3.459523 3.126279 -4.724305 -2.424386 1.142618 -2.891253 11.076190 -13.304584 -1.861800 5.077400 -4.844900 -16.458615 -34.116633 16.788685 4.940526 -12.823235 -1.285618 -1.635649 1.763645 -7.444010 -7.125000 0.000000 0.000000 -66.194388 48.723299 -74.447484 -35.605773 53.575414 -20.452356 -0.372987 2.332696 -42.702660 7.125000 0.000000 0.000000 
8.109465 15.219593 1.913929 -151.386660 -60.286179 -165.974259 15.166988 2.655026 -96.522493 15.559229 17.485438 75.499156 2.554587 -2.300753 17.308018 2.832000 -10.418000 -30.341300 19.280852 -4.569109 -82.139134 -22.315471 -18.865836 97.162644 -3.197040 18.011046 3.983479 -0.283300 3.423200 -9.459200 -3.474627 -3.418586 3.176615 -4.581366 -2.418345 1.045054 -3.136623 11.343384 -13.290235 -1.944000 5.227700 -4.831000 -16.852592 -33.801672 17.105340 5.011473 -12.851755 -1.303908 -1.805637 1.675772 -9.010873 -7.125000 0.000000 0.000000 -65.802488 48.829528 -73.856684 -38.144655 54.758418 -22.223436 -0.348348 2.274690 -42.546152 7.125000 0.000000 0.000000 
8.122133 14.979670 1.948766 -151.928635 -59.402879 -166.065693 15.130751 3.405158 -98.587276 17.509231 17.749772 81.751951 2.907678 -3.510573 17.541852 3.169800 -10.965000 -32.162000 18.657684 -4.824250 -84.455686 -23.413497 -18.577977 100.610939 -3.159520 18.347384 4.453998 -0.124900 2.278000 -6.274600 -3.465650 -3.357765 3.206301 -4.407985 -2.401988 0.914208 -3.342048 11.602359 -13.234713 -2.011200 5.371100 -4.791600 -17.371315 -33.466473 17.680833 5.113926 -12.905094 -1.330201 -1.964567 1.585654 -10.761467 -7.125000 0.000000 0.000000 -65.089689 48.951694 -72.947606 -41.002994 55.950679 -24.242024 -0.318533 2.218889 -42.325840 7.125000 0.000000 0.000000 
8.130651 14.730682 1.982729 -152.688693 -58.538683 -165.961209 14.952079 4.156908 -100.516795 19.365826 17.816158 87.759631 3.305167 -4.874157 18.045449 3.519200 -11.491600 -33.956200 17.966833 -5.158239 -86.832400 -24.389938 -18.240277 103.766178 -3.123409 18.920410 5.198658 -0.035100 1.208700 -3.323300 -3.461139 -3.285491 3.212142 -4.229602 -2.376704 0.755016 -3.544617 11.855848 -13.179432 -2.084100 5.507700 -4.746600 -18.020663 -33.119859 18.445752 5.240941 -12.981768 -1.367698 -2.118710 1.500091 -12.644585 -7.125000 0.000000 0.000000 -64.035031 49.061850 -71.710080 -44.163396 57.122696 -26.508083 -0.284458 2.168341 -42.062550 7.125000 0.000000 0.000000 
8.134254 14.471101 2.015490 -153.594650 -57.721595 -165.703448 14.652801 4.890703 -102.325484 21.082371 17.713037 93.430411 3.750031 -6.444039 18.843909 3.747900 -11.817100 -35.088000 17.257830 -5.570896 -89.273587 -25.248326 -17.871459 106.628041 -3.084787 19.712952 6.146543 -0.003600 0.388600 -1.067700 -3.468211 -3.204666 3.201150 -4.091034 -2.341803 0.574667 -3.783946 12.095267 -13.149462 -2.188200 5.628800 -4.697400 -18.761270 -32.777896 19.416090 5.381246 -13.075716 -1.417843 -2.287777 1.416644 -14.674588 -7.125000 0.000000 0.000000 -62.584677 49.126576 -70.126133 -47.608290 58.243312 -29.023976 -0.247720 2.126254 -41.794905 7.125000 0.000000 0.000000 
8.131633 14.199180 2.045958 -154.565464 -56.981417 -165.400667 14.252434 5.575877 -103.953485 22.623000 17.480710 98.680151 4.226594 -8.220590 19.998231 3.761000 -11.835400 -35.152300 16.581082 -6.091181 -91.700383 -25.995998 -17.488208 109.206637 -3.035312 20.688257 7.257434 -0.000700 -0.171400 0.470800 -3.480635 -3.123333 3.186840 -4.002991 -2.300806 0.373162 -4.070654 12.315369 -13.172255 -2.328000 5.731600 -4.656700 -19.578029 -32.448155 20.564750 5.526823 -13.182903 -1.483987 -2.484738 1.331661 -16.826204 -7.125000 0.000000 0.000000 -60.755761 49.123865 -68.212181 -51.329309 59.302879 -31.799756 -0.211903 2.093832 -41.571326 7.125000 0.000000 0.000000 
